<?xml version="1.0" encoding="utf-8"?>
<svg version="1.1" xmlns:xlink="http://www.w3.org/1999/xlink" width="18px" height="16px" xmlns="http://www.w3.org/2000/svg">
  <g transform="matrix(1 0 0 1 -777 -60 )">
    <path d="M 786 60  C 791.04 60  795 63.52  795 68  C 795 72.48  791.04 76  786 76  C 780.96 76  777 72.48  777 68  C 777 63.52  780.96 60  786 60  Z " fill-rule="nonzero" fill="#7f7f7f" stroke="none" />
    <path d="M 786 60.5  C 790.76 60.5  794.5 63.8  794.5 68  C 794.5 72.2  790.76 75.5  786 75.5  C 781.24 75.5  777.5 72.2  777.5 68  C 777.5 63.8  781.24 60.5  786 60.5  Z " stroke-width="1" stroke="#797979" fill="none" />
  </g>
</svg>