<?xml version="1.0" encoding="utf-8"?>
<svg version="1.1" xmlns:xlink="http://www.w3.org/1999/xlink" width="15px" height="15px" xmlns="http://www.w3.org/2000/svg">
  <g transform="matrix(1 0 0 1 -661 -9 )">
    <path d="M 668.5 9  C 672.7 9  676 12.3  676 16.5  C 676 20.7  672.7 24  668.5 24  C 664.3 24  661 20.7  661 16.5  C 661 12.3  664.3 9  668.5 9  Z " fill-rule="nonzero" fill="#7f7f7f" stroke="none" />
    <path d="M 668.5 9.5  C 672.42 9.5  675.5 12.58  675.5 16.5  C 675.5 20.42  672.42 23.5  668.5 23.5  C 664.58 23.5  661.5 20.42  661.5 16.5  C 661.5 12.58  664.58 9.5  668.5 9.5  Z " stroke-width="1" stroke="#797979" fill="none" />
  </g>
</svg>